<mxfile host="app.diagrams.net" modified="2024-09-17T02:15:01.005Z" agent="Mozilla/5.0 (Windows NT 10.0; Win64; x64; rv:130.0) Gecko/20100101 Firefox/130.0" etag="YeDd4y1ACbuYh13b4qqb" version="24.6.4" type="github">
  <diagram name="Page-1" id="-YI0v_4tezAAjEWHdQQT">
    <mxGraphModel dx="880" dy="480" grid="1" gridSize="10" guides="1" tooltips="1" connect="1" arrows="1" fold="1" page="1" pageScale="1" pageWidth="850" pageHeight="1100" math="0" shadow="0">
      <root>
        <mxCell id="0" />
        <mxCell id="1" parent="0" />
      </root>
    </mxGraphModel>
  </diagram>
</mxfile>
